<svg width="128" height="62" viewBox="0 0 128 62" fill="none" xmlns="http://www.w3.org/2000/svg">
<path fill-rule="evenodd" clip-rule="evenodd" d="M105.022 25.6388C104.433 27.0191 104.138 28.5098 104.157 30.0135C104.139 31.5272 104.433 33.028 105.022 34.4196C105.583 35.7312 106.412 36.9073 107.456 37.87C108.55 38.8623 109.828 39.6254 111.216 40.1154C114.369 41.1866 117.78 41.1866 120.933 40.1154C122.323 39.626 123.603 38.8629 124.7 37.87C125.744 36.9073 126.573 35.7312 127.134 34.4196C127.722 33.0278 128.017 31.5271 127.999 30.0135C128.017 28.51 127.722 27.0195 127.134 25.6388C126.573 24.3402 125.743 23.1785 124.7 22.2319C123.601 21.2505 122.321 20.4996 120.933 20.0228C117.776 18.9807 114.373 18.9807 111.216 20.0228C109.83 20.5002 108.552 21.251 107.456 22.2319C106.413 23.1785 105.584 24.3402 105.022 25.6388ZM108.964 32.9533C108.566 32.0263 108.368 31.0241 108.383 30.0135C108.366 29.005 108.564 28.0048 108.964 27.0809C109.335 26.2381 109.886 25.4893 110.578 24.8887C111.294 24.2736 112.124 23.8075 113.018 23.5167C115.011 22.8879 117.145 22.8879 119.138 23.5167C120.031 23.8064 120.858 24.2727 121.571 24.8887C122.261 25.4912 122.812 26.2395 123.185 27.0809C123.589 28.0028 123.789 29.0027 123.773 30.011C123.788 31.0232 123.588 32.0268 123.185 32.9533C122.811 33.8058 122.261 34.5673 121.571 35.1866C120.861 35.8193 120.034 36.3036 119.138 36.6118C117.151 37.2763 115.005 37.2763 113.018 36.6118C112.121 36.3026 111.291 35.8184 110.578 35.1866C109.886 34.5693 109.336 33.8073 108.964 32.9533Z" fill="#041361"/>
<path fill-rule="evenodd" clip-rule="evenodd" d="M10.6017 19.5243H0V40.6236H4.23588V34.6156L10.6375 34.6301H10.757L14.6702 40.6236H19.8408L15.2989 33.8728C16.0454 33.5942 16.7458 33.2026 17.3762 32.7114C18.5158 31.8292 19.3325 30.5879 19.6973 29.1835C19.8867 28.4539 19.9808 27.7022 19.977 26.9478C19.9943 25.8812 19.8017 24.8218 19.4105 23.8313C19.0392 22.9193 18.4473 22.1163 17.6894 21.4963C16.8235 20.81 15.8276 20.3109 14.7634 20.0301C13.4055 19.6701 12.0052 19.5 10.6017 19.5243ZM12.8081 30.6329C12.1265 30.8339 11.419 30.9301 10.7092 30.9184H4.22632V23.2578H10.714C12.3268 23.2595 13.5316 23.5821 14.3284 24.2257C15.1252 24.8693 15.5236 25.7799 15.5236 26.9575C15.5317 27.5191 15.4293 28.0768 15.2224 28.598C15.025 29.0797 14.714 29.5051 14.3164 29.8368C13.8708 30.2008 13.358 30.4714 12.8081 30.6329Z" fill="#041361"/>
<path d="M56.3765 19.5243H52.1501V40.6236H56.3765V25.4525L63.9518 32.8348L71.5272 25.4525V40.6236H75.7535V19.5243H71.5272L63.9518 27.2188L56.3765 19.5243Z" fill="#041361"/>
<path fill-rule="evenodd" clip-rule="evenodd" d="M80.3193 19.5243H91.454C92.6531 19.5046 93.8492 19.6519 95.0086 19.9623C95.9128 20.2047 96.7647 20.6149 97.521 21.1721C98.1586 21.6478 98.6696 22.2764 99.0078 23.0014C99.3318 23.7185 99.4951 24.4994 99.4859 25.2879C99.5076 26.5752 99.0677 27.8268 98.2477 28.8109C99.1605 29.3358 99.9067 30.113 100.399 31.0515C100.884 32.0263 101.126 33.106 101.104 34.197C101.121 35.1075 100.958 36.0122 100.626 36.8586C100.304 37.6472 99.7957 38.3441 99.1465 38.8887C98.408 39.4915 97.5542 39.9331 96.6389 40.1856C95.4772 40.5065 94.2763 40.6589 93.0723 40.6381H80.3193V19.5243ZM93.0843 27.6301C93.4476 27.6301 93.8014 27.6446 94.1504 27.6713C94.4285 27.424 94.6519 27.1201 94.8059 26.7794C94.96 26.4388 95.0413 26.0691 95.0445 25.6944C95.0588 25.3464 94.9848 25.0004 94.8295 24.6895C94.6743 24.3786 94.4429 24.1131 94.1576 23.9184C93.5648 23.499 92.7002 23.2901 91.564 23.2917H84.548V27.6301H93.0843ZM93.1632 36.9046C94.301 36.9046 95.1656 36.657 95.7568 36.1618C96.348 35.6665 96.6437 34.9689 96.6437 34.0688C96.6644 33.6726 96.5952 33.277 96.4415 32.9121C96.2878 32.5472 96.0536 32.2228 95.7568 31.9637C95.1672 31.4604 94.3026 31.2088 93.1632 31.2088H84.5575V36.8973L93.1632 36.9046Z" fill="#041361"/>
<path d="M22.1787 30.0088L25.1309 32.9971L35.5222 22.4765L45.9159 32.9971L48.8681 30.0088L35.5222 16.5L22.1787 30.0088Z" fill="#21B9D9"/>
<path d="M28.2829 36.172L35.5224 28.8441L42.762 36.172L35.5224 43.5L28.2829 36.172Z" fill="#21B9D9"/>
</svg>
