<svg width="94" height="20" viewBox="0 0 94 20" fill="none" xmlns="http://www.w3.org/2000/svg">
<path fill-rule="evenodd" clip-rule="evenodd" d="M77.1257 6.76969C76.6929 7.79219 76.4764 8.89642 76.4902 10.0102C76.4768 11.1315 76.6933 12.2432 77.1257 13.274C77.5373 14.2456 78.1465 15.1168 78.9128 15.8299C79.7167 16.5649 80.6552 17.1302 81.6742 17.4932C83.9894 18.2866 86.495 18.2866 88.8102 17.4932C89.8309 17.1306 90.7712 16.5653 91.5769 15.8299C92.3432 15.1168 92.9523 14.2456 93.364 13.274C93.7957 12.243 94.0121 11.1314 93.9995 10.0102C94.0124 8.8965 93.7959 7.79245 93.364 6.76969C92.9517 5.80781 92.3423 4.94729 91.5769 4.2461C90.7698 3.51911 89.8294 2.9629 88.8102 2.60971C86.4916 1.83778 83.9928 1.83778 81.6742 2.60971C80.6567 2.96333 79.7182 3.51953 78.9128 4.2461C78.1473 4.94729 77.538 5.80781 77.1257 6.76969ZM80.0205 12.1879C79.7282 11.5012 79.5828 10.7588 79.5939 10.0102C79.5815 9.26323 79.727 8.5223 80.0205 7.83791C80.2927 7.21363 80.6974 6.65895 81.2054 6.21407C81.7318 5.75848 82.3408 5.41317 82.9978 5.19782C84.4611 4.73199 86.0286 4.73199 87.4919 5.19782C88.1476 5.41238 88.7551 5.75781 89.2789 6.21407C89.7854 6.66041 90.1899 7.21471 90.4639 7.83791C90.7605 8.52082 90.9079 9.26148 90.8958 10.0084C90.9071 10.7582 90.7598 11.5016 90.4639 12.1879C90.1891 12.8194 89.7851 13.3835 89.2789 13.8422C88.7572 14.3108 88.1498 14.6696 87.4919 14.8979C86.0326 15.3901 84.457 15.3901 82.9978 14.8979C82.3386 14.6688 81.7297 14.3102 81.2054 13.8422C80.6977 13.3849 80.2934 12.8204 80.0205 12.1879Z" fill="white"/>
<path fill-rule="evenodd" clip-rule="evenodd" d="M7.7856 2.24049H0V17.8695H3.11073V13.4192L7.81193 13.43H7.8997L10.7734 17.8695H14.5706L11.2351 12.869C11.7833 12.6626 12.2977 12.3725 12.7607 12.0086C13.5975 11.3552 14.1973 10.4357 14.4652 9.39544C14.6043 8.85495 14.6734 8.29817 14.6706 7.73934C14.6833 6.94927 14.5419 6.16453 14.2546 5.43083C13.9819 4.75525 13.5473 4.16049 12.9906 3.70123C12.3548 3.19281 11.6234 2.82313 10.8419 2.61509C9.84464 2.34847 8.81633 2.22244 7.7856 2.24049ZM9.40591 10.469C8.90541 10.6179 8.38584 10.6892 7.86459 10.6805H3.10371V5.00605H7.8681C9.05248 5.00724 9.93724 5.24622 10.5224 5.72297C11.1076 6.19973 11.4002 6.87424 11.4002 7.74651C11.4061 8.16254 11.3309 8.57562 11.179 8.9617C11.034 9.31853 10.8056 9.63362 10.5136 9.87937C10.1863 10.149 9.8098 10.3494 9.40591 10.469Z" fill="white"/>
<path d="M41.4015 2.24049H38.2978V17.8695H41.4015V6.63168L46.9646 12.1001L52.5278 6.63168V17.8695H55.6315V2.24049H52.5278L46.9646 7.94008L41.4015 2.24049Z" fill="white"/>
<path fill-rule="evenodd" clip-rule="evenodd" d="M58.9845 2.24049H67.1615C68.0421 2.22583 68.9205 2.33499 69.7719 2.5649C70.436 2.74445 71.0616 3.04832 71.617 3.46106C72.0853 3.8134 72.4605 4.27901 72.7089 4.81606C72.9468 5.3473 73.0667 5.9257 73.06 6.5098C73.0759 7.46333 72.7529 8.39045 72.1506 9.11943C72.821 9.50822 73.369 10.0839 73.7306 10.7791C74.0864 11.5012 74.2642 12.301 74.2484 13.1091C74.2604 13.7836 74.141 14.4537 73.8973 15.0807C73.6605 15.6648 73.2875 16.1811 72.8107 16.5844C72.2684 17.031 71.6414 17.3581 70.9692 17.5451C70.1161 17.7829 69.2342 17.8957 68.35 17.8803H58.9845V2.24049ZM68.3588 8.24477C68.6256 8.24477 68.8854 8.25553 69.1417 8.27524C69.3459 8.09209 69.51 7.86698 69.6231 7.61464C69.7363 7.36231 69.7959 7.08842 69.7983 6.81091C69.8088 6.5531 69.7544 6.29683 69.6404 6.06654C69.5264 5.83625 69.3565 5.6396 69.147 5.49535C68.7116 5.18468 68.0767 5.02994 67.2423 5.03114H62.0899V8.24477H68.3588ZM68.4167 15.1147C69.2523 15.1147 69.8872 14.9313 70.3214 14.5645C70.7556 14.1977 70.9727 13.6809 70.9727 13.0141C70.9879 12.7207 70.9371 12.4276 70.8242 12.1573C70.7113 11.8871 70.5393 11.6467 70.3214 11.4548C69.8884 11.082 69.2535 10.8956 68.4167 10.8956H62.0969V15.1094L68.4167 15.1147Z" fill="white"/>
<path d="M16.2876 10.0065L18.4556 12.2201L26.0867 4.42704L33.7196 12.2201L35.8876 10.0065L26.0867 0L16.2876 10.0065Z" fill="#21B9D9"/>
<path d="M20.7703 14.5719L26.0869 9.14377L31.4035 14.5719L26.0869 20L20.7703 14.5719Z" fill="#21B9D9"/>
</svg>
