<svg width="180" height="38" viewBox="0 0 180 38" fill="none" xmlns="http://www.w3.org/2000/svg">
<path fill-rule="evenodd" clip-rule="evenodd" d="M147.687 12.8622C146.859 14.805 146.444 16.903 146.471 19.0192C146.445 21.1497 146.859 23.262 147.687 25.2205C148.476 27.0665 149.642 28.7217 151.11 30.0766C152.649 31.4731 154.446 32.5471 156.397 33.2368C160.831 34.7444 165.629 34.7444 170.062 33.2368C172.017 32.548 173.817 31.474 175.36 30.0766C176.827 28.7217 177.994 27.0665 178.782 25.2205C179.609 23.2616 180.023 21.1495 179.999 19.0192C180.024 16.9032 179.609 14.8055 178.782 12.8622C177.993 11.0347 176.826 9.39968 175.36 8.06742C173.814 6.68614 172.014 5.62934 170.062 4.95828C165.622 3.49161 160.837 3.49161 156.397 4.95828C154.449 5.63015 152.652 6.68693 151.11 8.06742C149.644 9.39968 148.477 11.0347 147.687 12.8622ZM153.231 23.1568C152.671 21.8522 152.393 20.4416 152.414 19.0192C152.39 17.6 152.669 16.1922 153.231 14.8919C153.752 13.7057 154.527 12.6518 155.5 11.8066C156.508 10.9409 157.674 10.2848 158.932 9.8757C161.734 8.99061 164.736 8.99061 167.538 9.8757C168.793 10.2833 169.956 10.9397 170.96 11.8066C171.93 12.6546 172.704 13.7078 173.229 14.8919C173.797 16.1894 174.079 17.5966 174.056 19.0158C174.077 20.4404 173.795 21.8529 173.229 23.1568C172.703 24.3566 171.929 25.4284 170.96 26.3C169.961 27.1904 168.798 27.8721 167.538 28.3058C164.743 29.2411 161.726 29.2411 158.932 28.3058C157.67 27.8706 156.504 27.1892 155.5 26.3C154.528 25.4311 153.753 24.3587 153.231 23.1568Z" fill="#041361"/>
<path fill-rule="evenodd" clip-rule="evenodd" d="M14.9086 4.25676H0V33.952H5.95671V25.4963L14.959 25.5167H15.1271L20.63 33.952H27.9011L21.5141 24.4509C22.5638 24.0588 23.5488 23.5077 24.4353 22.8163C26.0378 21.5747 27.1863 19.8277 27.6994 17.8512C27.9657 16.8242 28.0979 15.7663 28.0927 14.7046C28.117 13.2034 27.8461 11.7124 27.296 10.3184C26.7739 9.0348 25.9416 7.90476 24.8757 7.03218C23.6581 6.06617 22.2576 5.36377 20.7611 4.9685C18.8514 4.46193 16.8823 4.22246 14.9086 4.25676ZM18.0113 19.891C17.0529 20.1739 16.058 20.3093 15.0599 20.2928H5.94327V9.51131H15.0666C17.3345 9.51358 19.0288 9.96764 20.1493 10.8735C21.2698 11.7793 21.8301 13.0609 21.8301 14.7182C21.8415 15.5087 21.6975 16.2935 21.4065 17.0271C21.129 17.705 20.6915 18.3037 20.1325 18.7706C19.5058 19.2829 18.7847 19.6638 18.0113 19.891Z" fill="#041361"/>
<path d="M79.2794 4.25677H73.3361V33.952H79.2794V12.6L89.9322 22.9899L100.585 12.6V33.952H106.528V4.25677H100.585L89.9322 15.086L79.2794 4.25677Z" fill="#041361"/>
<path fill-rule="evenodd" clip-rule="evenodd" d="M112.949 4.25677H128.607C130.293 4.22891 131.975 4.43631 133.606 4.87315C134.877 5.21429 136.075 5.79165 137.139 6.57585C138.036 7.24529 138.754 8.12996 139.23 9.15034C139.685 10.1597 139.915 11.2587 139.902 12.3685C139.933 14.1802 139.314 15.9417 138.161 17.3267C139.444 18.0654 140.494 19.1593 141.186 20.4801C141.868 21.852 142.208 23.3717 142.178 24.9072C142.201 26.1886 141.972 27.4619 141.506 28.6531C141.052 29.763 140.338 30.7438 139.425 31.5103C138.386 32.3587 137.186 32.9801 135.898 33.3356C134.265 33.7872 132.576 34.0017 130.883 33.9724H112.949V4.25677ZM130.9 15.6649C131.411 15.6649 131.908 15.6853 132.399 15.7228C132.79 15.3748 133.104 14.9471 133.321 14.4676C133.538 13.9882 133.652 13.4678 133.656 12.9406C133.676 12.4507 133.572 11.9638 133.354 11.5263C133.136 11.0887 132.81 10.7151 132.409 10.441C131.575 9.85072 130.36 9.55672 128.762 9.55899H118.896V15.6649H130.9ZM131.011 28.7178C132.611 28.7178 133.827 28.3694 134.658 27.6724C135.489 26.9754 135.905 25.9935 135.905 24.7267C135.934 24.1692 135.837 23.6123 135.621 23.0988C135.405 22.5852 135.075 22.1286 134.658 21.764C133.829 21.0557 132.613 20.7015 131.011 20.7015H118.909V28.7076L131.011 28.7178Z" fill="#041361"/>
<path d="M31.1887 19.0124L35.3402 23.2181L49.953 8.41137L64.5691 23.2181L68.7207 19.0124L49.953 0L31.1887 19.0124Z" fill="#21B9D9"/>
<path d="M39.7727 27.6866L49.9533 17.3732L60.134 27.6866L49.9533 38L39.7727 27.6866Z" fill="#21B9D9"/>
</svg>
