<svg width="48" height="12" viewBox="0 0 48 12" fill="none" xmlns="http://www.w3.org/2000/svg">
<path fill-rule="evenodd" clip-rule="evenodd" d="M39.3833 4.42993C39.1623 4.94799 39.0518 5.50747 39.0588 6.07179C39.052 6.6399 39.1625 7.20319 39.3833 7.72546C39.5935 8.21772 39.9046 8.65912 40.2959 9.02042C40.7064 9.39282 41.1857 9.67923 41.706 9.86315C42.8882 10.2652 44.1677 10.2652 45.3499 9.86315C45.8711 9.67947 46.3513 9.39305 46.7627 9.02042C47.154 8.65912 47.465 8.21772 47.6752 7.72546C47.8957 7.20308 48.0062 6.63987 47.9997 6.07179C48.0064 5.50751 47.8958 4.94812 47.6752 4.42993C47.4647 3.94257 47.1535 3.50658 46.7627 3.15131C46.3505 2.78297 45.8703 2.50115 45.3499 2.3222C44.1659 1.93109 42.8899 1.93109 41.706 2.3222C41.1864 2.50137 40.7071 2.78318 40.2959 3.15131C39.905 3.50658 39.5939 3.94257 39.3833 4.42993ZM40.8615 7.17514C40.7123 6.82724 40.638 6.45108 40.6437 6.07179C40.6374 5.69332 40.7117 5.31791 40.8615 4.97116C41.0005 4.65485 41.2072 4.37382 41.4666 4.14841C41.7354 3.91758 42.0464 3.74262 42.3819 3.63351C43.1291 3.39749 43.9295 3.39749 44.6767 3.63351C45.0115 3.74222 45.3217 3.91724 45.5892 4.14841C45.8479 4.37456 46.0544 4.6554 46.1943 4.97116C46.3458 5.31716 46.421 5.69244 46.4149 6.07088C46.4207 6.45076 46.3454 6.82743 46.1943 7.17514C46.054 7.4951 45.8477 7.7809 45.5892 8.01333C45.3228 8.25077 45.0127 8.43254 44.6767 8.5482C43.9316 8.79761 43.127 8.79761 42.3819 8.5482C42.0452 8.43215 41.7343 8.25044 41.4666 8.01333C41.2074 7.78163 41.0009 7.49564 40.8615 7.17514Z" fill="#041361"/>
<path fill-rule="evenodd" clip-rule="evenodd" d="M3.97562 2.13513H0V10.0539H1.58846V7.79901L3.98907 7.80446H4.03389L5.50133 10.0539H7.44029L5.73709 7.52022C6.01702 7.41568 6.27967 7.26871 6.51608 7.08433C6.94341 6.75325 7.24968 6.28738 7.3865 5.76031C7.45752 5.48646 7.49279 5.20435 7.49138 4.92121C7.49786 4.52092 7.42564 4.12331 7.27893 3.75157C7.1397 3.40928 6.91775 3.10793 6.63351 2.87524C6.30882 2.61764 5.93537 2.43033 5.53629 2.32493C5.02705 2.18984 4.50196 2.12599 3.97562 2.13513ZM4.80302 6.30427C4.54744 6.3797 4.28213 6.41582 4.01596 6.41142H1.58487V3.53635H4.01776C4.62254 3.53695 5.07434 3.65803 5.37314 3.89959C5.67195 4.14115 5.82135 4.4829 5.82135 4.92485C5.82439 5.13564 5.78599 5.34493 5.7084 5.54054C5.63439 5.72134 5.51773 5.88099 5.36866 6.0055C5.20154 6.1421 5.00926 6.24366 4.80302 6.30427Z" fill="#041361"/>
<path d="M21.1412 2.13513H19.5563V10.0539H21.1412V4.36L23.9819 7.13065L26.8227 4.36V10.0539H28.4076V2.13513H26.8227L23.9819 5.02292L21.1412 2.13513Z" fill="#041361"/>
<path fill-rule="evenodd" clip-rule="evenodd" d="M30.1197 2.13513H34.2952C34.7449 2.1277 35.1935 2.18301 35.6282 2.2995C35.9673 2.39047 36.2868 2.54443 36.5704 2.75356C36.8095 2.93207 37.0011 3.16798 37.1279 3.44009C37.2494 3.70925 37.3107 4.0023 37.3072 4.29825C37.3154 4.78137 37.1504 5.25111 36.8429 5.62046C37.1852 5.81745 37.465 6.10913 37.6497 6.46137C37.8314 6.82721 37.9221 7.23246 37.9141 7.64191C37.9202 7.98362 37.8593 8.32316 37.7348 8.64083C37.6139 8.9368 37.4234 9.19835 37.1799 9.40274C36.903 9.62897 36.5828 9.7947 36.2396 9.88948C35.8039 10.0099 35.3536 10.0671 34.9021 10.0593H30.1197V2.13513ZM34.9066 5.1773C35.0429 5.1773 35.1755 5.18275 35.3064 5.19274C35.4107 5.09994 35.4945 4.98589 35.5522 4.85804C35.61 4.73018 35.6405 4.59142 35.6417 4.45081C35.647 4.32019 35.6193 4.19035 35.5611 4.07366C35.5029 3.95698 35.4161 3.85735 35.3091 3.78426C35.0868 3.62685 34.7626 3.54845 34.3365 3.54906H31.7055V5.1773H34.9066ZM34.9362 8.65809C35.3629 8.65809 35.6871 8.56516 35.9088 8.3793C36.1305 8.19344 36.2414 7.9316 36.2414 7.59378C36.2491 7.44511 36.2232 7.29662 36.1656 7.15967C36.1079 7.02273 36.0201 6.90097 35.9088 6.80373C35.6877 6.61484 35.3635 6.5204 34.9362 6.5204H31.7091V8.65536L34.9362 8.65809Z" fill="#041361"/>
<path d="M8.31689 6.06998L9.42397 7.19149L13.3207 3.24303L17.2183 7.19149L18.3254 6.06998L13.3207 1L8.31689 6.06998Z" fill="#21B9D9"/>
<path d="M10.606 8.38309L13.3208 5.63284L16.0356 8.38309L13.3208 11.1333L10.606 8.38309Z" fill="#21B9D9"/>
</svg>
