<svg width="48" height="11" viewBox="0 0 48 11" fill="none" xmlns="http://www.w3.org/2000/svg">
<path fill-rule="evenodd" clip-rule="evenodd" d="M39.3833 3.42987C39.1623 3.94793 39.0518 4.50741 39.0588 5.07173C39.052 5.63984 39.1625 6.20313 39.3833 6.7254C39.5935 7.21766 39.9046 7.65906 40.2959 8.02036C40.7064 8.39276 41.1857 8.67917 41.706 8.86309C42.8882 9.26511 44.1677 9.26511 45.3499 8.86309C45.8711 8.67941 46.3513 8.39299 46.7627 8.02036C47.154 7.65906 47.465 7.21766 47.6752 6.7254C47.8957 6.20302 48.0062 5.63981 47.9997 5.07173C48.0064 4.50745 47.8958 3.94806 47.6752 3.42987C47.4647 2.94251 47.1535 2.50652 46.7627 2.15125C46.3505 1.78291 45.8703 1.50109 45.3499 1.32214C44.1659 0.93103 42.8899 0.93103 41.706 1.32214C41.1864 1.50131 40.7071 1.78312 40.2959 2.15125C39.905 2.50652 39.5939 2.94251 39.3833 3.42987ZM40.8615 6.17508C40.7123 5.82718 40.638 5.45102 40.6437 5.07173C40.6374 4.69326 40.7117 4.31785 40.8615 3.9711C41.0005 3.65479 41.2072 3.37376 41.4666 3.14835C41.7354 2.91752 42.0464 2.74256 42.3819 2.63345C43.1291 2.39743 43.9295 2.39743 44.6767 2.63345C45.0115 2.74216 45.3217 2.91718 45.5892 3.14835C45.8479 3.3745 46.0544 3.65534 46.1943 3.9711C46.3458 4.3171 46.421 4.69237 46.4149 5.07082C46.4207 5.4507 46.3454 5.82737 46.1943 6.17508C46.054 6.49504 45.8477 6.78084 45.5892 7.01327C45.3228 7.25071 45.0127 7.43248 44.6767 7.54814C43.9316 7.79755 43.127 7.79755 42.3819 7.54814C42.0452 7.43209 41.7343 7.25038 41.4666 7.01327C41.2074 6.78157 41.0009 6.49558 40.8615 6.17508Z" fill="white"/>
<path fill-rule="evenodd" clip-rule="evenodd" d="M3.97562 1.13507H0V9.05379H1.58846V6.79895L3.98907 6.8044H4.03389L5.50133 9.05379H7.44029L5.73709 6.52016C6.01702 6.41562 6.27967 6.26865 6.51608 6.08427C6.94341 5.75319 7.24968 5.28732 7.3865 4.76025C7.45752 4.4864 7.49279 4.20429 7.49138 3.92115C7.49786 3.52085 7.42564 3.12325 7.27893 2.75151C7.1397 2.40921 6.91775 2.10787 6.63351 1.87518C6.30882 1.61758 5.93537 1.43027 5.53629 1.32487C5.02705 1.18978 4.50196 1.12592 3.97562 1.13507ZM4.80302 5.3042C4.54744 5.37964 4.28213 5.41576 4.01596 5.41136H1.58487V2.53629H4.01776C4.62254 2.53689 5.07434 2.65797 5.37314 2.89953C5.67195 3.14109 5.82135 3.48284 5.82135 3.92479C5.82439 4.13558 5.78599 4.34487 5.7084 4.54048C5.63439 4.72128 5.51773 4.88092 5.36866 5.00544C5.20154 5.14204 5.00926 5.2436 4.80302 5.3042Z" fill="white"/>
<path d="M21.1412 1.13507H19.5563V9.05379H21.1412V3.35994L23.9819 6.13058L26.8227 3.35994V9.05379H28.4076V1.13507H26.8227L23.9819 4.02286L21.1412 1.13507Z" fill="white"/>
<path fill-rule="evenodd" clip-rule="evenodd" d="M30.1197 1.13507H34.2952C34.7449 1.12764 35.1935 1.18295 35.6282 1.29944C35.9673 1.39041 36.2868 1.54437 36.5704 1.7535C36.8095 1.93201 37.0011 2.16792 37.1279 2.44003C37.2494 2.70919 37.3107 3.00224 37.3072 3.29819C37.3154 3.78131 37.1504 4.25105 36.8429 4.6204C37.1852 4.81739 37.465 5.10907 37.6497 5.46131C37.8314 5.82715 37.9221 6.2324 37.9141 6.64185C37.9202 6.98356 37.8593 7.3231 37.7348 7.64077C37.6139 7.93674 37.4234 8.19829 37.1799 8.40268C36.903 8.62891 36.5828 8.79464 36.2396 8.88942C35.8039 9.00987 35.3536 9.06704 34.9021 9.05924H30.1197V1.13507ZM34.9066 4.17724C35.0429 4.17724 35.1755 4.18269 35.3064 4.19268C35.4107 4.09988 35.4945 3.98583 35.5522 3.85797C35.61 3.73012 35.6405 3.59136 35.6417 3.45075C35.647 3.32013 35.6193 3.19028 35.5611 3.0736C35.5029 2.95692 35.4161 2.85729 35.3091 2.7842C35.0868 2.62679 34.7626 2.54839 34.3365 2.549H31.7055V4.17724H34.9066ZM34.9362 7.65803C35.3629 7.65803 35.6871 7.5651 35.9088 7.37924C36.1305 7.19338 36.2414 6.93154 36.2414 6.59372C36.2491 6.44505 36.2232 6.29656 36.1656 6.15961C36.1079 6.02266 36.0201 5.90091 35.9088 5.80367C35.6877 5.61478 35.3635 5.52034 34.9362 5.52034H31.7091V7.6553L34.9362 7.65803Z" fill="white"/>
<path d="M8.31641 5.06998L9.42349 6.19149L13.3202 2.24303L17.2179 6.19149L18.3249 5.06998L13.3202 0L8.31641 5.06998Z" fill="#21B9D9"/>
<path d="M10.6055 7.38309L13.3203 4.63284L16.0352 7.38309L13.3203 10.1333L10.6055 7.38309Z" fill="#21B9D9"/>
</svg>
